<?xml version="1.0" encoding="UTF-8"?>
<svg version="1.1" xmlns="http://www.w3.org/2000/svg" width="512" height="512">
<path d="M0 0 C1.97265625 0.55859375 1.97265625 0.55859375 3.46289062 2.67660522 C5.11060817 5.82192989 6.11188152 8.81891897 7.1015625 12.22900391 C7.38759842 13.20310463 7.38759842 13.20310463 7.67941284 14.19688416 C8.09003328 15.59825237 8.497485 17.00055223 8.90206909 18.40367508 C9.54302733 20.62493371 10.19321892 22.84330028 10.84594727 25.06112671 C12.6989815 31.36413365 14.53378622 37.67242084 16.36621094 43.98144531 C17.48978193 47.84751951 18.62273949 51.71074606 19.76119995 55.57246017 C20.40183008 57.75676716 21.03117083 59.94413089 21.66040039 62.13174438 C22.0542424 63.4703328 22.44866126 64.80875168 22.84375 66.14697266 C23.1833374 67.3154776 23.5229248 68.48398254 23.87280273 69.68789673 C25.98914432 75.21170094 29.94023706 76.70632627 35.0859375 79.078125 C36.15525261 79.58040619 36.15525261 79.58040619 37.24617004 80.09283447 C39.58965831 81.19177646 41.93733876 82.28143555 44.28515625 83.37109375 C45.92653947 84.13866457 47.56764986 84.90681904 49.20849609 85.67553711 C53.35374466 87.6157285 57.50239972 89.54850425 61.65228271 91.47875977 C65.04843842 93.05923131 68.44223457 94.64473912 71.8359375 96.23046875 C75.46820143 97.92715849 79.10085258 99.62300798 82.73510742 101.31542969 C92.20164835 105.72452729 101.65134439 110.16884533 111.09765625 114.62109375 C121.33294108 119.44507038 131.57911578 124.24321792 141.84765625 128.99609375 C152.99479392 134.15780639 164.11355086 139.3781239 175.22265625 144.62109375 C176.00300232 144.98903046 176.78334839 145.35696716 177.58734131 145.73605347 C179.82565864 146.79172217 182.06333057 147.84874591 184.30078125 148.90625 C184.95799164 149.21615875 185.61520203 149.5260675 186.29232788 149.84536743 C188.18904731 150.74311869 190.08177786 151.64860777 191.97265625 152.55859375 C192.6936853 152.90381073 193.41471436 153.24902771 194.15759277 153.60470581 C194.87354614 153.95356842 195.58949951 154.30243103 196.32714844 154.66186523 C196.97721863 154.97695541 197.62728882 155.29204559 198.29705811 155.61668396 C199.97265625 156.55859375 199.97265625 156.55859375 201.97265625 158.55859375 C202.42757911 162.04633564 202.48634786 163.84555913 200.40234375 166.73828125 C197.07153937 169.23370704 194.833428 168.96084456 190.72265625 168.80859375 C189.459375 168.7725 188.19609375 168.73640625 186.89453125 168.69921875 C185.9303125 168.6528125 184.96609375 168.60640625 183.97265625 168.55859375 C183.97265625 172.84859375 183.97265625 177.13859375 183.97265625 181.55859375 C185.16503906 181.52378906 186.35742188 181.48898438 187.5859375 181.453125 C189.15232967 181.42498622 190.71873706 181.39768615 192.28515625 181.37109375 C193.07083984 181.34595703 193.85652344 181.32082031 194.66601562 181.29492188 C195.80200195 181.28041992 195.80200195 181.28041992 196.9609375 181.265625 C198.00568237 181.24205933 198.00568237 181.24205933 199.0715332 181.21801758 C201.5929864 181.66972263 202.44869754 182.52868891 203.97265625 184.55859375 C204.41015625 188.05859375 204.41015625 188.05859375 203.97265625 191.55859375 C201.44514569 194.41265606 199.92905589 194.56187691 196.08203125 194.8515625 C194.62861616 194.8317432 193.17534458 194.7961422 191.72265625 194.74609375 C190.97757812 194.73255859 190.2325 194.71902344 189.46484375 194.70507812 C187.63380209 194.66986579 185.80313456 194.61606226 183.97265625 194.55859375 C183.97265625 197.52859375 183.97265625 200.49859375 183.97265625 203.55859375 C185.16503906 203.52378906 186.35742188 203.48898438 187.5859375 203.453125 C189.15232967 203.42498622 190.71873706 203.39768615 192.28515625 203.37109375 C193.07083984 203.34595703 193.85652344 203.32082031 194.66601562 203.29492188 C195.80200195 203.28041992 195.80200195 203.28041992 196.9609375 203.265625 C198.00568237 203.24205933 198.00568237 203.24205933 199.0715332 203.21801758 C201.5929864 203.66972263 202.44869754 204.52868891 203.97265625 206.55859375 C204.41015625 210.05859375 204.41015625 210.05859375 203.97265625 213.55859375 C201.44514569 216.41265606 199.92905589 216.56187691 196.08203125 216.8515625 C194.62861616 216.8317432 193.17534458 216.7961422 191.72265625 216.74609375 C190.97757812 216.73255859 190.2325 216.71902344 189.46484375 216.70507812 C187.63380209 216.66986579 185.80313456 216.61606226 183.97265625 216.55859375 C183.99585938 217.75097656 184.0190625 218.94335938 184.04296875 220.171875 C184.06172803 221.73827499 184.07992806 223.30468175 184.09765625 224.87109375 C184.11441406 225.65677734 184.13117188 226.44246094 184.1484375 227.25195312 C184.15488281 228.00927734 184.16132813 228.76660156 184.16796875 229.546875 C184.17844238 230.24337158 184.18891602 230.93986816 184.19970703 231.6574707 C183.97265625 233.55859375 183.97265625 233.55859375 181.97265625 236.55859375 C179.66015625 237.43359375 179.66015625 237.43359375 176.97265625 237.55859375 C172.37564132 235.3645639 172.37564132 235.3645639 170.97265625 232.55859375 C170.90083804 229.84099267 170.87966119 227.14999987 170.91015625 224.43359375 C170.91466797 223.67949219 170.91917969 222.92539063 170.92382812 222.1484375 C170.93562126 220.28512248 170.95355683 218.4218482 170.97265625 216.55859375 C169.94785156 216.61660156 168.92304688 216.67460937 167.8671875 216.734375 C166.50655614 216.78129332 165.14587529 216.82679127 163.78515625 216.87109375 C162.77485352 216.93393555 162.77485352 216.93393555 161.74414062 216.99804688 C157.79139569 217.09445529 156.1391122 216.68767317 152.98046875 214.23828125 C150.97265625 211.55859375 150.97265625 211.55859375 151.03515625 208.37109375 C151.97265625 205.55859375 151.97265625 205.55859375 153.97265625 203.55859375 C156.88201205 203.41341631 159.69260225 203.37228579 162.59765625 203.43359375 C163.39945312 203.44261719 164.20125 203.45164063 165.02734375 203.4609375 C167.00924148 203.48453152 168.99098606 203.5204031 170.97265625 203.55859375 C170.97265625 200.58859375 170.97265625 197.61859375 170.97265625 194.55859375 C169.94785156 194.61660156 168.92304688 194.67460937 167.8671875 194.734375 C166.50655614 194.78129332 165.14587529 194.82679127 163.78515625 194.87109375 C162.77485352 194.93393555 162.77485352 194.93393555 161.74414062 194.99804688 C157.7923192 195.09443276 156.1407367 194.68910327 152.984375 192.23828125 C150.97265625 189.55859375 150.97265625 189.55859375 150.97265625 186.37109375 C151.97265625 183.55859375 151.97265625 183.55859375 154.97265625 181.55859375 C157.73920949 181.41613478 160.39918931 181.3708993 163.16015625 181.43359375 C163.90974609 181.44261719 164.65933594 181.45164063 165.43164062 181.4609375 C167.27878279 181.48446797 169.12576037 181.52033814 170.97265625 181.55859375 C170.97265625 177.26859375 170.97265625 172.97859375 170.97265625 168.55859375 C155.46265625 168.55859375 139.95265625 168.55859375 123.97265625 168.55859375 C123.97265625 172.84859375 123.97265625 177.13859375 123.97265625 181.55859375 C125.16503906 181.52378906 126.35742188 181.48898438 127.5859375 181.453125 C129.15232967 181.42498622 130.71873706 181.39768615 132.28515625 181.37109375 C133.07083984 181.34595703 133.85652344 181.32082031 134.66601562 181.29492188 C135.80200195 181.28041992 135.80200195 181.28041992 136.9609375 181.265625 C138.00568237 181.24205933 138.00568237 181.24205933 139.0715332 181.21801758 C141.5929864 181.66972263 142.44869754 182.52868891 143.97265625 184.55859375 C144.41015625 188.05859375 144.41015625 188.05859375 143.97265625 191.55859375 C141.44514569 194.41265606 139.92905589 194.56187691 136.08203125 194.8515625 C134.62861616 194.8317432 133.17534458 194.7961422 131.72265625 194.74609375 C130.97757812 194.73255859 130.2325 194.71902344 129.46484375 194.70507812 C127.63380209 194.66986579 125.80313456 194.61606226 123.97265625 194.55859375 C123.97265625 197.52859375 123.97265625 200.49859375 123.97265625 203.55859375 C125.16503906 203.52378906 126.35742188 203.48898438 127.5859375 203.453125 C129.15232967 203.42498622 130.71873706 203.39768615 132.28515625 203.37109375 C133.07083984 203.34595703 133.85652344 203.32082031 134.66601562 203.29492188 C135.80200195 203.28041992 135.80200195 203.28041992 136.9609375 203.265625 C138.00568237 203.24205933 138.00568237 203.24205933 139.0715332 203.21801758 C141.5929864 203.66972263 142.44869754 204.52868891 143.97265625 206.55859375 C144.41015625 210.05859375 144.41015625 210.05859375 143.97265625 213.55859375 C141.44514569 216.41265606 139.92905589 216.56187691 136.08203125 216.8515625 C134.62861616 216.8317432 133.17534458 216.7961422 131.72265625 216.74609375 C130.97757812 216.73255859 130.2325 216.71902344 129.46484375 216.70507812 C127.63380209 216.66986579 125.80313456 216.61606226 123.97265625 216.55859375 C123.99585938 217.75097656 124.0190625 218.94335938 124.04296875 220.171875 C124.06172803 221.73827499 124.07992806 223.30468175 124.09765625 224.87109375 C124.11441406 225.65677734 124.13117188 226.44246094 124.1484375 227.25195312 C124.15488281 228.00927734 124.16132813 228.76660156 124.16796875 229.546875 C124.17844238 230.24337158 124.18891602 230.93986816 124.19970703 231.6574707 C123.97265625 233.55859375 123.97265625 233.55859375 121.97265625 236.55859375 C119.66015625 237.43359375 119.66015625 237.43359375 116.97265625 237.55859375 C112.37564132 235.3645639 112.37564132 235.3645639 110.97265625 232.55859375 C110.90083804 229.84099267 110.87966119 227.14999987 110.91015625 224.43359375 C110.91466797 223.67949219 110.91917969 222.92539063 110.92382812 222.1484375 C110.93562126 220.28512248 110.95355683 218.4218482 110.97265625 216.55859375 C109.94785156 216.61660156 108.92304688 216.67460937 107.8671875 216.734375 C106.50655614 216.78129332 105.14587529 216.82679127 103.78515625 216.87109375 C102.77485352 216.93393555 102.77485352 216.93393555 101.74414062 216.99804688 C97.79139569 217.09445529 96.1391122 216.68767317 92.98046875 214.23828125 C90.97265625 211.55859375 90.97265625 211.55859375 91.03515625 208.37109375 C91.97265625 205.55859375 91.97265625 205.55859375 93.97265625 203.55859375 C96.88201205 203.41341631 99.69260225 203.37228579 102.59765625 203.43359375 C103.39945312 203.44261719 104.20125 203.45164063 105.02734375 203.4609375 C107.00924148 203.48453152 108.99098606 203.5204031 110.97265625 203.55859375 C110.97265625 200.58859375 110.97265625 197.61859375 110.97265625 194.55859375 C109.94785156 194.61660156 108.92304688 194.67460937 107.8671875 194.734375 C106.50655614 194.78129332 105.14587529 194.82679127 103.78515625 194.87109375 C102.77485352 194.93393555 102.77485352 194.93393555 101.74414062 194.99804688 C97.7923192 195.09443276 96.1407367 194.68910327 92.984375 192.23828125 C90.97265625 189.55859375 90.97265625 189.55859375 90.97265625 186.37109375 C91.97265625 183.55859375 91.97265625 183.55859375 94.97265625 181.55859375 C97.73920949 181.41613478 100.39918931 181.3708993 103.16015625 181.43359375 C103.90974609 181.44261719 104.65933594 181.45164063 105.43164062 181.4609375 C107.27878279 181.48446797 109.12576037 181.52033814 110.97265625 181.55859375 C110.97265625 177.26859375 110.97265625 172.97859375 110.97265625 168.55859375 C82.75765625 169.05359375 82.75765625 169.05359375 53.97265625 169.55859375 C55.18953125 173.58691406 56.40640625 177.61523438 57.66015625 181.765625 C74.2530882 236.72625708 90.71295204 291.72663461 107.1313324 346.73963928 C107.929301 349.41332688 108.72739473 352.0869771 109.5255127 354.76062012 C112.00754789 363.07609502 114.48665753 371.39242403 116.95880127 379.71084595 C117.62716049 381.95896882 118.29637085 384.20683886 118.9664917 386.45443726 C119.8462349 389.40633504 120.72257199 392.35921835 121.59765625 395.3125 C121.8459317 396.14329071 122.09420715 396.97408142 122.3500061 397.83004761 C123.97265625 403.32900787 123.97265625 403.32900787 123.97265625 405.55859375 C124.92785156 405.5121875 125.88304687 405.46578125 126.8671875 405.41796875 C137.36598062 405.1248818 146.20465654 405.77536148 154.41015625 413.12109375 C162.18286659 422.02371994 162.58794716 432.19144605 162.41015625 443.55859375 C162.41724609 444.86699219 162.42433594 446.17539062 162.43164062 447.5234375 C162.36851909 456.93340232 162.36851909 456.93340232 160.9256897 459.21208191 C157.92483183 461.2810125 154.83700402 460.96752637 151.32006836 460.9309082 C150.54255722 460.93455887 149.76504608 460.93820953 148.963974 460.94197083 C146.39242758 460.95008096 143.82151031 460.93646391 141.25 460.921875 C139.46545919 460.9213565 137.68091781 460.92187381 135.89637756 460.92338562 C132.15633621 460.92329588 128.41651033 460.91286177 124.67651367 460.89477539 C119.87544951 460.87207171 115.07469985 460.87154686 110.27359676 460.87829304 C106.58908783 460.88162939 102.90465099 460.87500953 99.22015572 460.8651638 C97.44947245 460.86130697 95.67878117 460.86016558 93.90809441 460.86174965 C91.43718973 460.86211925 88.96669316 460.84953061 86.49584961 460.83325195 C85.39161652 460.83696808 85.39161652 460.83696808 84.26507568 460.84075928 C79.20140003 460.78733753 79.20140003 460.78733753 76.97265625 458.55859375 C76.5465946 454.12719453 76.6010708 449.67981645 76.60205078 445.23022461 C76.59771964 443.02832219 76.56153587 440.82849491 76.5234375 438.62695312 C76.44575108 428.90626728 77.52655064 420.55916682 84.2109375 412.96411133 C86.67031731 411.00199248 89.3339878 409.75601128 92.16015625 408.3828125 C93.79017578 407.58556763 93.79017578 407.58556763 95.453125 406.7722168 C96.28457031 406.37172119 97.11601562 405.97122559 97.97265625 405.55859375 C97.36494385 405.13674805 96.75723145 404.71490234 96.13110352 404.28027344 C84.05609644 395.89589441 71.99818696 387.48949408 60.00097656 378.99414062 C56.49402984 376.51209359 52.98309331 374.03570051 49.47265625 371.55859375 C48.05597155 370.55861929 46.63930486 369.55861933 45.22265625 368.55859375 C44.52140625 368.06359375 43.82015625 367.56859375 43.09765625 367.05859375 C36.72265625 362.55859375 36.72265625 362.55859375 34.59570312 361.05712891 C33.18565522 360.0618582 31.77549977 359.06673984 30.36523438 358.07177734 C26.72138275 355.50068777 23.07970223 352.92660275 19.44140625 350.34765625 C8.80594025 342.80896555 8.80594025 342.80896555 -2.02734375 335.55859375 C-8.47642324 339.7477394 -14.75643842 344.16676932 -21.03100586 348.61035156 C-26.68294934 352.6125682 -32.35105576 356.59098987 -38.02734375 360.55859375 C-46.35151309 366.37961315 -54.65652845 372.22713661 -62.95068359 378.09082031 C-67.17299677 381.07513101 -71.39791194 384.05575736 -75.62231445 387.03710938 C-79.33889324 389.66027181 -83.05473625 392.28446816 -86.76953125 394.91015625 C-87.54490234 395.45800781 -88.32027344 396.00585938 -89.11914062 396.5703125 C-90.60764973 397.62207343 -92.09594159 398.67414191 -93.58398438 399.7265625 C-94.25365234 400.19964844 -94.92332031 400.67273438 -95.61328125 401.16015625 C-96.4957251 401.78398193 -96.4957251 401.78398193 -97.39599609 402.42041016 C-98.92536035 403.48744041 -100.47572977 404.52418443 -102.02734375 405.55859375 C-101.23070312 405.89890625 -100.4340625 406.23921875 -99.61328125 406.58984375 C-90.2587081 410.86882125 -85.68162668 415.1722797 -81.68025208 424.62220764 C-80.63398631 427.72520759 -80.63777283 430.66097986 -80.62890625 433.91796875 C-80.62603607 434.58902649 -80.62316589 435.26008423 -80.62020874 435.95147705 C-80.61818292 437.35649469 -80.62360814 438.7615415 -80.63623047 440.16650391 C-80.65240974 442.31736667 -80.63628186 444.46637964 -80.6171875 446.6171875 C-80.61916822 447.98828538 -80.62300835 449.35938212 -80.62890625 450.73046875 C-80.63229004 451.96893555 -80.63567383 453.20740234 -80.63916016 454.48339844 C-81.02734375 457.55859375 -81.02734375 457.55859375 -82.08004761 459.22653198 C-85.05495162 461.26153621 -88.09247498 460.97599668 -91.57226562 460.94677734 C-92.3384169 460.9520343 -93.10456818 460.95729126 -93.89393616 460.96270752 C-96.42819566 460.97591875 -98.96182779 460.96716574 -101.49609375 460.95703125 C-103.25581991 460.95905167 -105.01554526 460.96196284 -106.77526855 460.96572876 C-110.46402963 460.97015362 -114.15257283 460.96371589 -117.84130859 460.94970703 C-122.57285656 460.93261498 -127.30389405 460.9424553 -132.03542328 460.96042442 C-135.66937109 460.97125792 -139.30319761 460.96781794 -142.93714905 460.96004105 C-144.68189046 460.95803783 -146.42664284 460.96050256 -148.17137146 460.96747971 C-150.6086856 460.97508715 -153.04516966 460.96350058 -155.48242188 460.94677734 C-156.20563126 460.95285004 -156.92884064 460.95892273 -157.67396545 460.96517944 C-160.56693345 460.92835064 -162.55199616 460.88605228 -164.97364807 459.21781921 C-167.48531376 455.26276866 -166.50191092 449.59386435 -166.47338867 445.06420898 C-166.46497051 443.02677231 -166.49347894 440.99223099 -166.52539062 438.95507812 C-166.52087139 429.7855513 -165.51118151 422.59418457 -160.23828125 414.97265625 C-152.67485158 407.60233542 -145.81787823 405.24435697 -135.40234375 405.30859375 C-132.94072635 405.35900978 -130.48736569 405.44871684 -128.02734375 405.55859375 C-127.76751709 404.3152124 -127.50769043 403.07183105 -127.23999023 401.79077148 C-125.96363497 396.06134989 -124.30738678 390.46507927 -122.625 384.84375 C-122.1075975 383.10183128 -122.1075975 383.10183128 -121.57974243 381.32472229 C-120.62234712 378.10449667 -119.66206239 374.88516003 -118.70040512 371.66620636 C-117.87153092 368.88984158 -117.04505803 366.11276414 -116.21851444 363.3357048 C-108.18926539 336.36142503 -100.08941823 309.40818728 -91.99401855 282.45370483 C-83.73630453 254.95873664 -75.51422644 227.4534561 -67.33984375 199.93359375 C-67.0986166 199.12148689 -66.85738945 198.30938004 -66.60885239 197.47266388 C-63.74634967 187.83523295 -60.8864932 178.19702071 -58.02734375 168.55859375 C-76.83734375 168.55859375 -95.64734375 168.55859375 -115.02734375 168.55859375 C-115.02734375 172.84859375 -115.02734375 177.13859375 -115.02734375 181.55859375 C-113.91875 181.5121875 -112.81015625 181.46578125 -111.66796875 181.41796875 C-110.20445407 181.38044273 -108.74091019 181.34404346 -107.27734375 181.30859375 C-106.54773438 181.27507812 -105.818125 181.2415625 -105.06640625 181.20703125 C-101.48981996 181.14200241 -99.44642348 181.25469587 -96.51171875 183.3828125 C-95.02734375 185.55859375 -95.02734375 185.55859375 -95.02734375 188.62109375 C-96.2090307 192.09229917 -96.84777318 192.81495828 -100.02734375 194.55859375 C-102.70028825 194.7718606 -105.11996495 194.84405006 -107.77734375 194.74609375 C-108.47472656 194.73255859 -109.17210937 194.71902344 -109.890625 194.70507812 C-111.60319916 194.66988825 -113.31537316 194.6160853 -115.02734375 194.55859375 C-115.02734375 197.52859375 -115.02734375 200.49859375 -115.02734375 203.55859375 C-113.83496094 203.5121875 -112.64257812 203.46578125 -111.4140625 203.41796875 C-109.84768128 203.38045064 -108.28127299 203.34405052 -106.71484375 203.30859375 C-105.92916016 203.27507812 -105.14347656 203.2415625 -104.33398438 203.20703125 C-98.53261574 203.10828455 -98.53261574 203.10828455 -95.98046875 205.3828125 C-94.60965725 208.51208302 -94.99981445 210.33900196 -96.02734375 213.55859375 C-98.56731941 216.25613614 -99.94983971 216.55240992 -103.69921875 216.8515625 C-105.0589041 216.83176126 -106.41843715 216.79618577 -107.77734375 216.74609375 C-108.47472656 216.73255859 -109.17210937 216.71902344 -109.890625 216.70507812 C-111.60319916 216.66988825 -113.31537316 216.6160853 -115.02734375 216.55859375 C-114.99253906 217.6671875 -114.95773438 218.77578125 -114.921875 219.91796875 C-114.89373026 221.38149523 -114.86643083 222.84503814 -114.83984375 224.30859375 C-114.81470703 225.03820312 -114.78957031 225.7678125 -114.76367188 226.51953125 C-114.7190429 229.79232276 -114.78711808 232.12370246 -116.38671875 235.01953125 C-118.5758552 237.07314973 -120.04619634 237.41317193 -123.02734375 237.55859375 C-125.73371904 236.58129156 -126.72990597 236.1534693 -128.02734375 233.55859375 C-128.09929244 230.67489042 -128.12026083 227.81619711 -128.08984375 224.93359375 C-128.08533203 224.13179687 -128.08082031 223.33 -128.07617188 222.50390625 C-128.06437543 220.52210369 -128.0464398 218.54033942 -128.02734375 216.55859375 C-129.1359375 216.59339844 -130.24453125 216.62820312 -131.38671875 216.6640625 C-132.85024523 216.69220724 -134.31378814 216.71950667 -135.77734375 216.74609375 C-136.50695312 216.77123047 -137.2365625 216.79636719 -137.98828125 216.82226562 C-141.23114938 216.86648655 -143.61115844 216.7748533 -146.515625 215.265625 C-148.02734375 213.55859375 -148.02734375 213.55859375 -148.46484375 210.05859375 C-148.02734375 206.55859375 -148.02734375 206.55859375 -146.75073242 204.8581543 C-144.64988993 203.27396609 -143.62014516 203.20687642 -141.015625 203.265625 C-140.25830078 203.27529297 -139.50097656 203.28496094 -138.72070312 203.29492188 C-137.93501953 203.32005859 -137.14933594 203.34519531 -136.33984375 203.37109375 C-135.54255859 203.38462891 -134.74527344 203.39816406 -133.92382812 203.41210938 C-131.95804408 203.44742286 -129.99260793 203.50122928 -128.02734375 203.55859375 C-128.02734375 200.58859375 -128.02734375 197.61859375 -128.02734375 194.55859375 C-129.1359375 194.59339844 -130.24453125 194.62820312 -131.38671875 194.6640625 C-132.85024523 194.69220724 -134.31378814 194.71950667 -135.77734375 194.74609375 C-136.50695312 194.77123047 -137.2365625 194.79636719 -137.98828125 194.82226562 C-141.23114938 194.86648655 -143.61115844 194.7748533 -146.515625 193.265625 C-148.02734375 191.55859375 -148.02734375 191.55859375 -148.46484375 188.05859375 C-148.02734375 184.55859375 -148.02734375 184.55859375 -146.75073242 182.8581543 C-144.64988993 181.27396609 -143.62014516 181.20687642 -141.015625 181.265625 C-140.25830078 181.27529297 -139.50097656 181.28496094 -138.72070312 181.29492188 C-137.93501953 181.32005859 -137.14933594 181.34519531 -136.33984375 181.37109375 C-135.54255859 181.38462891 -134.74527344 181.39816406 -133.92382812 181.41210938 C-131.95804408 181.44742286 -129.99260793 181.50122928 -128.02734375 181.55859375 C-128.02734375 177.26859375 -128.02734375 172.97859375 -128.02734375 168.55859375 C-143.53734375 168.55859375 -159.04734375 168.55859375 -175.02734375 168.55859375 C-175.02734375 172.84859375 -175.02734375 177.13859375 -175.02734375 181.55859375 C-173.91875 181.5121875 -172.81015625 181.46578125 -171.66796875 181.41796875 C-170.20445407 181.38044273 -168.74091019 181.34404346 -167.27734375 181.30859375 C-166.54773438 181.27507812 -165.818125 181.2415625 -165.06640625 181.20703125 C-161.48981996 181.14200241 -159.44642348 181.25469587 -156.51171875 183.3828125 C-155.02734375 185.55859375 -155.02734375 185.55859375 -155.02734375 188.62109375 C-156.2090307 192.09229917 -156.84777318 192.81495828 -160.02734375 194.55859375 C-162.70028825 194.7718606 -165.11996495 194.84405006 -167.77734375 194.74609375 C-168.47472656 194.73255859 -169.17210937 194.71902344 -169.890625 194.70507812 C-171.60319916 194.66988825 -173.31537316 194.6160853 -175.02734375 194.55859375 C-175.02734375 197.52859375 -175.02734375 200.49859375 -175.02734375 203.55859375 C-173.83496094 203.5121875 -172.64257812 203.46578125 -171.4140625 203.41796875 C-169.84768128 203.38045064 -168.28127299 203.34405052 -166.71484375 203.30859375 C-165.92916016 203.27507812 -165.14347656 203.2415625 -164.33398438 203.20703125 C-158.53261574 203.10828455 -158.53261574 203.10828455 -155.98046875 205.3828125 C-154.60965725 208.51208302 -154.99981445 210.33900196 -156.02734375 213.55859375 C-158.56731941 216.25613614 -159.94983971 216.55240992 -163.69921875 216.8515625 C-165.0589041 216.83176126 -166.41843715 216.79618577 -167.77734375 216.74609375 C-168.47472656 216.73255859 -169.17210937 216.71902344 -169.890625 216.70507812 C-171.60319916 216.66988825 -173.31537316 216.6160853 -175.02734375 216.55859375 C-174.99253906 217.6671875 -174.95773438 218.77578125 -174.921875 219.91796875 C-174.89373026 221.38149523 -174.86643083 222.84503814 -174.83984375 224.30859375 C-174.81470703 225.03820312 -174.78957031 225.7678125 -174.76367188 226.51953125 C-174.71902849 229.79337916 -174.78484013 232.12153136 -176.390625 235.015625 C-178.6120446 237.10980339 -179.98063032 237.48605295 -183.02734375 237.55859375 C-185.671875 236.63671875 -185.671875 236.63671875 -188.02734375 234.55859375 C-188.66668807 231.48330104 -188.49689255 228.49515684 -188.33984375 225.37109375 C-188.31728516 224.52611328 -188.29472656 223.68113281 -188.27148438 222.81054688 C-188.21259338 220.72580577 -188.12291173 218.64197571 -188.02734375 216.55859375 C-189.1359375 216.59339844 -190.24453125 216.62820312 -191.38671875 216.6640625 C-192.85024523 216.69220724 -194.31378814 216.71950667 -195.77734375 216.74609375 C-196.50695312 216.77123047 -197.2365625 216.79636719 -197.98828125 216.82226562 C-201.23114938 216.86648655 -203.61115844 216.7748533 -206.515625 215.265625 C-208.02734375 213.55859375 -208.02734375 213.55859375 -208.46484375 210.05859375 C-208.02734375 206.55859375 -208.02734375 206.55859375 -206.75073242 204.8581543 C-204.64988993 203.27396609 -203.62014516 203.20687642 -201.015625 203.265625 C-200.25830078 203.27529297 -199.50097656 203.28496094 -198.72070312 203.29492188 C-197.93501953 203.32005859 -197.14933594 203.34519531 -196.33984375 203.37109375 C-195.54255859 203.38462891 -194.74527344 203.39816406 -193.92382812 203.41210938 C-191.95804408 203.44742286 -189.99260793 203.50122928 -188.02734375 203.55859375 C-188.02734375 200.58859375 -188.02734375 197.61859375 -188.02734375 194.55859375 C-189.1359375 194.59339844 -190.24453125 194.62820312 -191.38671875 194.6640625 C-192.85024523 194.69220724 -194.31378814 194.71950667 -195.77734375 194.74609375 C-196.50695312 194.77123047 -197.2365625 194.79636719 -197.98828125 194.82226562 C-201.23114938 194.86648655 -203.61115844 194.7748533 -206.515625 193.265625 C-208.02734375 191.55859375 -208.02734375 191.55859375 -208.46484375 188.05859375 C-208.02734375 184.55859375 -208.02734375 184.55859375 -206.75073242 182.8581543 C-204.64988993 181.27396609 -203.62014516 181.20687642 -201.015625 181.265625 C-200.25830078 181.27529297 -199.50097656 181.28496094 -198.72070312 181.29492188 C-197.93501953 181.32005859 -197.14933594 181.34519531 -196.33984375 181.37109375 C-195.54255859 181.38462891 -194.74527344 181.39816406 -193.92382812 181.41210938 C-191.95804408 181.44742286 -189.99260793 181.50122928 -188.02734375 181.55859375 C-188.02734375 177.26859375 -188.02734375 172.97859375 -188.02734375 168.55859375 C-188.9915625 168.605 -189.95578125 168.65140625 -190.94921875 168.69921875 C-192.2125 168.7353125 -193.47578125 168.77140625 -194.77734375 168.80859375 C-196.0303125 168.855 -197.28328125 168.90140625 -198.57421875 168.94921875 C-202.02734375 168.55859375 -202.02734375 168.55859375 -204.4453125 166.73046875 C-206.02734375 164.55859375 -206.02734375 164.55859375 -206.58984375 161.55859375 C-205.83848326 157.55133779 -204.30742886 156.87462006 -201.02734375 154.55859375 C-199.25279003 153.60687406 -197.44334954 152.71819253 -195.609375 151.88671875 C-194.0018335 151.15014038 -194.0018335 151.15014038 -192.36181641 150.39868164 C-191.19956543 149.87395264 -190.03731445 149.34922363 -188.83984375 148.80859375 C-186.95754972 147.94870044 -185.07652806 147.086064 -183.19555664 146.22328186 C-181.86924712 145.61504396 -180.54257939 145.00758661 -179.21557617 144.40086365 C-172.21816291 141.1987524 -165.2576174 137.91959674 -158.29891968 134.63439941 C-154.69112372 132.93131497 -151.08197775 131.23109855 -147.47265625 129.53125 C-146.40584877 129.02880264 -146.40584877 129.02880264 -145.31748962 128.51620483 C-138.22892064 125.17950679 -131.12907011 121.86717248 -124.02734375 118.55859375 C-113.34892609 113.58340169 -102.68433316 108.57951755 -92.02734375 103.55859375 C-78.65167179 97.25701312 -65.26109699 90.98816974 -51.859375 84.7421875 C-50.75029785 84.19997559 -49.6412207 83.65776367 -48.49853516 83.09912109 C-45.95386597 81.96978767 -43.75816219 81.16065922 -41.11474609 80.42822266 C-35.9457315 78.83499483 -31.59502564 77.1657519 -28.70523071 72.35983276 C-25.64267583 65.52816627 -23.87725332 58.29025297 -22.02734375 51.05859375 C-21.43787107 48.92293132 -20.84285281 46.78879149 -20.2421875 44.65625 C-19.05646351 40.42054984 -17.89837001 36.1788083 -16.76171875 31.9296875 C-15.01558021 25.45159343 -13.14699103 19.014727 -11.21484375 12.58984375 C-10.92472412 11.60818237 -10.63460449 10.626521 -10.33569336 9.6151123 C-9.92589233 8.26552429 -9.92589233 8.26552429 -9.5078125 6.88867188 C-9.26957764 6.09787231 -9.03134277 5.30707275 -8.78588867 4.49230957 C-7.03720426 0.03448694 -4.39819845 0.25484888 0 0 Z M-3.02734375 30.55859375 C-5.2637194 37.18766283 -7.41240115 43.84068098 -9.50317383 50.51708984 C-10.22395695 52.78324106 -10.96437376 55.04324665 -11.72485352 57.29638672 C-16.57756425 69.65684701 -16.57756425 69.65684701 -15.52905273 82.20166016 C-13.18792835 84.79700174 -10.91788197 86.61647801 -8.02734375 88.55859375 C-6.29882812 90.453125 -6.29882812 90.453125 -4.96484375 92.18359375 C-4.32546875 92.96734375 -3.68609375 93.75109375 -3.02734375 94.55859375 C1.2317009 92.95255782 3.86619702 89.7738852 6.78515625 86.43359375 C7.30013672 85.88960937 7.81511719 85.345625 8.34570312 84.78515625 C9.06790039 83.95757812 9.06790039 83.95757812 9.8046875 83.11328125 C10.24530518 82.62327637 10.68592285 82.13327148 11.13989258 81.62841797 C13.4915337 75.78344188 10.05935888 67.81561578 8.3203125 62.0625 C8.06011826 61.18834946 7.79992401 60.31419891 7.53184509 59.41355896 C6.98447158 57.58146911 6.4338507 55.75034661 5.88012695 53.92016602 C5.03121504 51.108038 4.19769103 48.29164661 3.36523438 45.47460938 C2.83034389 43.69113103 2.29456835 41.90791783 1.7578125 40.125 C1.50878677 39.28030655 1.25976105 38.4356131 1.00318909 37.56532288 C0.38536728 35.54408771 -0.31351191 33.5479503 -1.02734375 31.55859375 C-1.68734375 31.22859375 -2.34734375 30.89859375 -3.02734375 30.55859375 Z M-44.04296875 95.78515625 C-44.75726044 96.12425522 -45.47155212 96.46335419 -46.20748901 96.81272888 C-47.75437444 97.54756654 -49.30043385 98.28414493 -50.84576416 99.02224731 C-54.13212754 100.59184693 -57.42240254 102.15316025 -60.71255493 103.71479797 C-62.39306717 104.51247483 -64.07338383 105.31056385 -65.75350952 106.10905457 C-73.203531 109.64828059 -80.67408976 113.14200927 -88.15234375 116.62109375 C-100.21270562 122.23609918 -112.25361085 127.89169349 -124.28564453 133.56713867 C-131.43873937 136.93951767 -138.59956352 140.29372964 -145.77734375 143.61328125 C-147.17970467 144.26298376 -148.58204875 144.91272264 -149.984375 145.5625 C-152.62541947 146.78605971 -155.26899238 148.00392203 -157.9140625 149.21875 C-159.08582031 149.76144531 -160.25757813 150.30414063 -161.46484375 150.86328125 C-162.49480469 151.33749512 -163.52476562 151.81170898 -164.5859375 152.30029297 C-167.12267863 153.45086949 -167.12267863 153.45086949 -169.02734375 155.55859375 C-130.74734375 155.55859375 -92.46734375 155.55859375 -53.02734375 155.55859375 C-50.05734375 145.72046875 -47.08734375 135.88234375 -44.02734375 125.74609375 C-43.08761719 122.64098389 -42.14789063 119.53587402 -41.1796875 116.33666992 C-40.4410786 113.8833994 -39.70277617 111.43003659 -38.96484375 108.9765625 C-38.77124268 108.3390657 -38.5776416 107.70156891 -38.37817383 107.04475403 C-37.80816362 105.16666044 -37.243816 103.28685109 -36.6796875 101.40698242 C-36.2000354 99.81813484 -36.2000354 99.81813484 -35.71069336 98.19718933 C-34.90198828 95.52883731 -34.90198828 95.52883731 -35.02734375 92.55859375 C-38.33050019 92.55859375 -41.11167435 94.37769938 -44.04296875 95.78515625 Z M30.97265625 92.55859375 C35.25589729 113.97479897 42.66070069 134.65024095 48.97265625 155.55859375 C87.25265625 155.55859375 125.53265625 155.55859375 164.97265625 155.55859375 C162.23902246 153.50836841 160.28481879 152.09484252 157.32275391 150.69604492 C156.61787842 150.36051605 155.91300293 150.02498718 155.18676758 149.67929077 C154.42775146 149.32364044 153.66873535 148.96799011 152.88671875 148.6015625 C152.0862915 148.22222565 151.28586426 147.84288879 150.46118164 147.45205688 C147.84208008 146.21229378 145.2199444 144.97910059 142.59765625 143.74609375 C140.77117224 142.88337282 138.94483889 142.02033284 137.11865234 141.15698242 C124.23541823 135.07182017 111.32875287 129.03701051 98.41015625 123.02734375 C90.85871203 119.51337744 83.3261465 115.95963895 75.79315186 112.40634155 C64.86927469 107.2553771 53.93901263 102.11863279 42.97265625 97.05859375 C41.97572754 96.59557861 40.97879883 96.13256348 39.95166016 95.65551758 C39.05108887 95.24197021 38.15051758 94.82842285 37.22265625 94.40234375 C36.4440625 94.04333984 35.66546875 93.68433594 34.86328125 93.31445312 C33.00249537 92.43485199 33.00249537 92.43485199 30.97265625 92.55859375 Z M-22.02734375 94.55859375 C-23.48098049 99.19997034 -24.92313991 103.84469777 -26.35473633 108.49291992 C-26.84344961 110.07397476 -27.33529602 111.65406465 -27.83032227 113.2331543 C-28.54096413 115.5019337 -29.24029899 117.77393463 -29.9375 120.046875 C-30.16139908 120.75322586 -30.38529816 121.45957672 -30.61598206 122.18733215 C-31.89817463 126.34682743 -31.89817463 126.34682743 -31.02734375 130.55859375 C-26.27423715 125.37849412 -21.60243193 120.13775754 -17.08984375 114.74609375 C-15.99349609 113.43705078 -15.99349609 113.43705078 -14.875 112.1015625 C-13.08452357 109.63729156 -12.01121381 107.4277855 -11.02734375 104.55859375 C-12.47889865 102.8860202 -13.93878784 101.22067617 -15.40234375 99.55859375 C-16.21445313 98.63046875 -17.0265625 97.70234375 -17.86328125 96.74609375 C-18.57742187 96.02421875 -19.2915625 95.30234375 -20.02734375 94.55859375 C-20.68734375 94.55859375 -21.34734375 94.55859375 -22.02734375 94.55859375 Z M13.7734375 96.60546875 C12.95230469 97.4975 12.13117188 98.38953125 11.28515625 99.30859375 C10.04185547 100.63117188 10.04185547 100.63117188 8.7734375 101.98046875 C6.72754201 104.30565387 6.72754201 104.30565387 7.18945312 106.5078125 C8.06098583 108.78988067 9.07180776 110.13775122 10.703125 111.94921875 C11.53324097 112.88495728 11.53324097 112.88495728 12.38012695 113.83959961 C13.26124146 114.81425171 13.26124146 114.81425171 14.16015625 115.80859375 C18.6812642 120.90570972 23.00821582 126.00837715 26.97265625 131.55859375 C28.31315761 127.53708967 27.08255585 124.73025213 25.8828125 120.828125 C25.6594371 120.07770432 25.43606171 119.32728363 25.20591736 118.55412292 C24.49042134 116.15726818 23.76296144 113.76423622 23.03515625 111.37109375 C22.54803602 109.74698216 22.06169812 108.1226357 21.57617188 106.49804688 C20.38406174 102.51544677 19.18120913 98.53623353 17.97265625 94.55859375 C15.71592925 94.33149427 15.71592925 94.33149427 13.7734375 96.60546875 Z M-3.02734375 116.55859375 C-3.54941406 117.20183594 -4.07148438 117.84507812 -4.609375 118.5078125 C-8.82036001 123.67751564 -13.0729569 128.80065463 -17.40234375 133.87109375 C-21.8157752 139.04906277 -26.0642747 144.3396507 -30.23583984 149.71411133 C-33.09353877 153.39411883 -36.0269803 156.99364578 -39.02734375 160.55859375 C-35.30435767 165.56536814 -30.93285066 169.17381293 -26.0703125 173.05859375 C-22.86904771 175.68864441 -19.81535252 178.43165102 -16.77734375 181.24609375 C-16.0181665 181.94400024 -16.0181665 181.94400024 -15.24365234 182.65600586 C-13.10459831 184.62459634 -10.98036042 186.60403101 -8.890625 188.625 C-5.78639328 191.70545862 -5.78639328 191.70545862 -1.6875 192.51171875 C1.80352458 191.26089643 4.00980284 189.11225587 6.59765625 186.55859375 C7.65913909 185.54703985 8.72298806 184.53796366 9.7890625 183.53125 C10.32160645 183.0273877 10.85415039 182.52352539 11.40283203 182.00439453 C13.69497006 179.89334611 16.10484772 177.94522211 18.53515625 175.99609375 C24.23404693 171.41039746 29.60859659 166.52838984 34.97265625 161.55859375 C32.06464302 156.99280576 28.85029735 152.93780547 25.28515625 148.87109375 C24.20865449 147.62975624 23.13314216 146.38756004 22.05859375 145.14453125 C21.53233398 144.53577148 21.00607422 143.92701172 20.46386719 143.29980469 C18.40618831 140.89715804 16.40460786 138.45135729 14.41015625 135.99609375 C10.98185245 131.78292186 7.52594334 127.59504995 4.03515625 123.43359375 C3.32540649 122.57979126 3.32540649 122.57979126 2.60131836 121.70874023 C0.14586422 118.70474566 0.14586422 118.70474566 -3.02734375 116.55859375 Z M-46.02734375 174.55859375 C-48.92164318 184.16988984 -51.80810687 193.7835001 -54.68448734 203.40017509 C-56.02024002 207.86512655 -57.35871618 212.329224 -58.70336914 216.79150391 C-60.00003601 221.09489928 -61.28961017 225.40036055 -62.57421684 229.70737076 C-63.06648222 231.35323387 -63.56133313 232.99832588 -64.0587635 234.64263535 C-64.75307355 236.93931652 -65.43828132 239.23852537 -66.12133789 241.53857422 C-66.33064941 242.22333832 -66.53996094 242.90810242 -66.75561523 243.61361694 C-67.96524185 247.13106818 -67.96524185 247.13106818 -67.02734375 250.55859375 C-65.91939453 249.52412109 -65.91939453 249.52412109 -64.7890625 248.46875 C-59.81295933 243.84997339 -54.8205182 239.3163151 -49.52734375 235.05859375 C-45.55104412 231.85927221 -41.76070527 228.53270239 -38.02734375 225.05859375 C-33.38602419 220.74082592 -28.59175223 216.68440378 -23.65234375 212.70703125 C-19.6681751 209.44617893 -15.84180953 206.01515904 -12.02734375 202.55859375 C-19.34864746 194.99324658 -27.35583002 188.18721375 -35.5390625 181.578125 C-37.58731895 179.91572534 -39.59385064 178.22012673 -41.58984375 176.49609375 C-43.76932989 174.35117904 -43.76932989 174.35117904 -46.02734375 174.55859375 Z M38.97265625 174.55859375 C38.16183594 175.32042969 37.35101563 176.08226562 36.515625 176.8671875 C30.31419356 182.66159701 24.04662669 188.25938471 17.4296875 193.578125 C14.21511678 196.16920187 11.09253517 198.85469869 7.97265625 201.55859375 C16.6483179 210.33173475 25.69619362 218.66880596 35.328125 226.3828125 C38.13104873 228.68891075 40.802689 231.10010906 43.47265625 233.55859375 C50.02066972 239.58051145 56.84417188 245.23693314 63.97265625 250.55859375 C61.80130518 241.50070406 59.28794198 232.56611043 56.62890625 223.640625 C56.32422173 222.61642739 56.32422173 222.61642739 56.01338196 221.57153893 C54.94345327 217.97725821 53.86985312 214.3840969 52.79345703 210.79174805 C51.6836507 207.08472584 50.58816721 203.37362033 49.49549103 199.66151905 C48.64919483 196.79642005 47.79207322 193.93464436 46.93193054 191.07367516 C46.52268555 189.70533481 46.1176397 188.33573133 45.71687317 186.9648838 C45.15939881 185.06146241 44.58500305 183.16302128 44.00976562 181.26489258 C43.68794312 180.18411942 43.36612061 179.10334625 43.0345459 177.98982239 C42.68412231 177.18751694 42.33369873 176.38521149 41.97265625 175.55859375 C40.98265625 175.22859375 39.99265625 174.89859375 38.97265625 174.55859375 Z M-9.71484375 217.24609375 C-11.08321992 218.44804579 -12.45171269 219.64986511 -13.8203125 220.8515625 C-14.52075684 221.46950684 -15.22120117 222.08745117 -15.94287109 222.72412109 C-19.12125746 225.52130957 -22.32454245 228.28943896 -25.52734375 231.05859375 C-26.77748362 232.14176568 -28.02748314 233.22509961 -29.27734375 234.30859375 C-31.77734375 236.47526042 -34.27734375 238.64192708 -36.77734375 240.80859375 C-37.39673828 241.34540771 -38.01613281 241.88222168 -38.65429688 242.43530273 C-39.89776496 243.51296427 -41.14125436 244.59060119 -42.38476562 245.66821289 C-45.60988396 248.46311804 -48.8345725 251.25851686 -52.05859375 254.0546875 C-52.72310547 254.63089844 -53.38761719 255.20710938 -54.07226562 255.80078125 C-55.32891576 256.89046389 -56.585437 257.98029521 -57.84179688 259.0703125 C-61.89105599 262.5811785 -65.95478169 266.07478923 -70.02734375 269.55859375 C-66.13874353 273.71095561 -61.95485887 276.9012827 -57.27734375 280.12109375 C-55.75120953 281.18476305 -54.22517051 282.24856896 -52.69921875 283.3125 C-51.53422852 284.12098389 -51.53422852 284.12098389 -50.34570312 284.94580078 C-46.72585342 287.46399025 -43.12716551 290.01189796 -39.52734375 292.55859375 C-38.11862098 293.55357148 -36.70976627 294.54836242 -35.30078125 295.54296875 C-34.60049805 296.03732422 -33.90021484 296.53167969 -33.17871094 297.04101562 C-30.97556861 298.59511602 -28.77112621 300.14735742 -26.56640625 301.69921875 C-18.67381657 307.25740492 -10.80837534 312.84466127 -3.02734375 318.55859375 C1.00962366 316.74856806 4.54245586 314.1985562 8.16015625 311.68359375 C8.86213135 311.19818115 9.56410645 310.71276855 10.28735352 310.21264648 C17.49734442 305.2164387 24.66098921 300.15465923 31.81835938 295.08349609 C34.71140154 293.03567862 37.60870429 290.99393634 40.50634766 288.95263672 C42.62489995 287.45845939 44.74022464 285.95979283 46.85546875 284.4609375 C49.60632462 282.51420806 52.37261996 280.59275539 55.15234375 278.6875 C55.80759033 278.2332666 56.46283691 277.7790332 57.13793945 277.31103516 C58.37309352 276.4549626 59.61359942 275.60654419 60.86010742 274.76708984 C62.68970476 273.52553855 62.68970476 273.52553855 64.97265625 271.55859375 C64.97265625 270.56859375 64.97265625 269.57859375 64.97265625 268.55859375 C62.89420651 266.56400078 60.8250165 264.74772945 58.59765625 262.93359375 C57.30118963 261.85263348 56.00562131 260.77059493 54.7109375 259.6875 C54.0710791 259.15527832 53.4312207 258.62305664 52.77197266 258.07470703 C50.38792451 256.06589577 48.08385013 253.97668249 45.78515625 251.87109375 C42.47182545 248.86044896 39.08323696 245.99294197 35.59765625 243.18359375 C31.58440982 239.93908185 27.74834187 236.57128417 23.97265625 233.05859375 C19.30723888 228.71898633 14.49335877 224.63238521 9.5234375 220.640625 C6.4325536 218.11774427 3.47160497 215.4692723 0.53125 212.7734375 C-3.52293175 209.61341112 -6.68039156 214.54744613 -9.71484375 217.24609375 Z M-78.02734375 281.55859375 C-82.18680855 295.40470265 -86.34202806 309.25207939 -90.49237728 323.10092354 C-92.41960977 329.53142152 -94.34820389 335.96150517 -96.2800293 342.390625 C-98.14409691 348.59474663 -100.00460333 354.79992589 -101.86264229 361.00585556 C-102.57225296 363.37370722 -103.28314741 365.74117455 -103.99534416 368.10824966 C-104.99240043 371.42288432 -105.98488958 374.73885428 -106.97631836 378.05517578 C-107.27194672 379.03413315 -107.56757507 380.01309052 -107.87216187 381.02171326 C-109.21180494 385.51921995 -110.41137892 389.89165208 -111.02734375 394.55859375 C-108.20893356 393.21395187 -105.65158463 391.70803639 -103.078125 389.94140625 C-102.32128418 389.42312256 -101.56444336 388.90483887 -100.78466797 388.37084961 C-99.57447998 387.53565796 -99.57447998 387.53565796 -98.33984375 386.68359375 C-97.49695801 386.10424072 -96.65407227 385.5248877 -95.78564453 384.92797852 C-88.18727145 379.6936861 -80.64463624 374.38217777 -73.12011719 369.04248047 C-69.59341888 366.54186541 -66.06002285 364.05074859 -62.52734375 361.55859375 C-61.11064552 360.55863847 -59.69397883 359.55863849 -58.27734375 358.55859375 C-55.44401042 356.55859375 -52.61067708 354.55859375 -49.77734375 352.55859375 C-49.07520752 352.06294922 -48.37307129 351.56730469 -47.6496582 351.05664062 C-46.24201562 350.06304866 -44.83430151 349.06955802 -43.42651367 348.07617188 C-39.74616642 345.47898235 -36.06731376 342.87971036 -32.390625 340.27734375 C-31.62878906 339.73851562 -30.86695313 339.1996875 -30.08203125 338.64453125 C-28.63234821 337.61914568 -27.18309931 336.59314593 -25.734375 335.56640625 C-25.074375 335.09976563 -24.414375 334.633125 -23.734375 334.15234375 C-23.10998535 333.71019531 -22.4855957 333.26804687 -21.84228516 332.8125 C-20.1003916 331.60906103 -18.32683033 330.47347366 -16.5390625 329.33984375 C-15.71019531 328.75203125 -14.88132812 328.16421875 -14.02734375 327.55859375 C-14.02734375 326.89859375 -14.02734375 326.23859375 -14.02734375 325.55859375 C-16.3064082 323.84699488 -18.59091594 322.25460362 -20.96484375 320.68359375 C-22.44470492 319.68592523 -23.92384895 318.68719229 -25.40234375 317.6875 C-26.16933594 317.17074707 -26.93632812 316.65399414 -27.7265625 316.12158203 C-31.33881922 313.66766994 -34.90264588 311.14689508 -38.46484375 308.62109375 C-39.16569092 308.12520752 -39.86653809 307.62932129 -40.58862305 307.1184082 C-42.01556698 306.10861358 -43.44224289 305.09844011 -44.86865234 304.08789062 C-53.73809294 297.80445069 -62.61001265 291.52396852 -71.52734375 285.30859375 C-72.56890625 284.5815625 -73.61046875 283.85453125 -74.68359375 283.10546875 C-76.69841201 281.46678672 -76.69841201 281.46678672 -78.02734375 281.55859375 Z M69.3515625 283.9453125 C68.59045166 284.46472412 67.82934082 284.98413574 67.04516602 285.51928711 C66.21686279 286.0891333 65.38855957 286.65897949 64.53515625 287.24609375 C63.67913818 287.83334229 62.82312012 288.42059082 61.94116211 289.02563477 C55.50849912 293.45736646 49.16022894 297.99612441 42.84301758 302.59033203 C37.01063038 306.82660142 31.12916889 310.98886094 25.22265625 315.12109375 C24.38871338 315.7049585 23.55477051 316.28882324 22.69555664 316.89038086 C21.90528076 317.44218018 21.11500488 317.99397949 20.30078125 318.5625 C19.55892578 319.08086426 18.81707031 319.59922852 18.05273438 320.13330078 C16.1899766 321.4096834 14.30113934 322.62674658 12.39453125 323.8359375 C11.5953125 324.40441406 10.79609375 324.97289062 9.97265625 325.55859375 C9.97265625 326.21859375 9.97265625 326.87859375 9.97265625 327.55859375 C11.59833659 328.97546377 11.59833659 328.97546377 13.75 330.39453125 C14.5646875 330.95785156 15.379375 331.52117187 16.21875 332.1015625 C17.55099609 333.00841797 17.55099609 333.00841797 18.91015625 333.93359375 C20.76327172 335.21187595 22.61613246 336.49052751 24.46875 337.76953125 C25.40058105 338.40987305 26.33241211 339.05021484 27.29248047 339.70996094 C31.04108398 342.29553443 34.75817359 344.92435469 38.47265625 347.55859375 C44.62628936 351.91064823 50.79585656 356.23949148 56.97265625 360.55859375 C65.27773624 366.36650867 73.56379483 372.20070322 81.83886719 378.05126953 C84.11394949 379.65840433 86.3907801 381.26303877 88.66796875 382.8671875 C89.82679565 383.68388916 89.82679565 383.68388916 91.0090332 384.51708984 C92.48642462 385.55822056 93.9641093 386.5989353 95.44213867 387.63916016 C96.10834229 388.1088623 96.7745459 388.57856445 97.4609375 389.0625 C98.07791504 389.4970752 98.69489258 389.93165039 99.33056641 390.37939453 C100.68690889 391.35339605 102.01215625 392.37054151 103.328125 393.3984375 C104.909604 394.75074527 104.909604 394.75074527 106.97265625 394.55859375 C104.13888512 382.68418937 100.80557836 371.00973044 97.25390625 359.33203125 C96.70833599 357.52766726 96.163137 355.72319097 95.61828613 353.91860962 C94.19617776 349.21152479 92.76972927 344.50576752 91.34210205 339.800354 C89.05722238 332.26658685 86.77935539 324.73069583 84.5009613 317.19496536 C83.71351599 314.59259997 82.92437062 311.99075542 82.1348877 309.38900757 C79.33029424 300.13489323 76.59111631 290.86726433 73.97265625 281.55859375 C72.16599469 281.55859375 70.80076569 282.9554064 69.3515625 283.9453125 Z M-149.02734375 422.55859375 C-154.59845039 430.96432074 -154.59845039 430.96432074 -153.02734375 448.55859375 C-133.55734375 448.55859375 -114.08734375 448.55859375 -94.02734375 448.55859375 C-92.0898831 429.83731778 -92.0898831 429.83731778 -99.02734375 421.55859375 C-103.65868526 418.38213242 -107.99190233 418.10377439 -113.4609375 418.125 C-114.25709976 418.11975815 -115.05326202 418.1145163 -115.87355042 418.1091156 C-117.55020995 418.10271884 -119.2269145 418.1040019 -120.90356445 418.11254883 C-123.45410911 418.12105794 -126.00241057 418.09226916 -128.55273438 418.06054688 C-130.18880142 418.05893445 -131.82487239 418.05951318 -133.4609375 418.0625 C-134.21531601 418.05126602 -134.96969452 418.04003204 -135.74693298 418.02845764 C-141.28067676 418.10047002 -144.56105792 419.21506983 -149.02734375 422.55859375 Z M93.97265625 422.55859375 C88.1236556 430.13024431 88.1236556 430.13024431 89.97265625 448.55859375 C109.44265625 448.55859375 128.91265625 448.55859375 148.97265625 448.55859375 C150.54376289 430.96432074 150.54376289 430.96432074 144.97265625 422.55859375 C139.78789599 418.68340257 135.80486488 417.95875803 129.44140625 418.02734375 C128.64665894 418.02351685 127.85191162 418.01968994 127.03308105 418.01574707 C125.36237309 418.01304008 123.69162185 418.02031592 122.02099609 418.03710938 C119.47917237 418.05853881 116.94017443 418.03726878 114.3984375 418.01171875 C112.76692091 418.01436224 111.13540607 418.01948768 109.50390625 418.02734375 C108.75266479 418.01924683 108.00142334 418.0111499 107.22741699 418.00280762 C101.71430997 418.09966995 98.45881846 419.29271124 93.97265625 422.55859375 Z " fill="#000000" transform="translate(258.02734375,25.44140625)"/>
</svg>
